<?xml version="1.0" standalone="no"?>
<!DOCTYPE svg PUBLIC "-//W3C//DTD SVG 20010904//EN"
 "http://www.w3.org/TR/2001/REC-SVG-20010904/DTD/svg10.dtd">
<svg version="1.0" xmlns="http://www.w3.org/2000/svg"
 width="700.000000pt" height="700.000000pt" viewBox="0 0 700.000000 700.000000"
 preserveAspectRatio="xMidYMid meet">
<metadata>
Created by potrace 1.14, written by Peter Selinger 2001-2017
</metadata>
<g transform="translate(0.000000,700.000000) scale(0.100000,-0.100000)"
fill="#000000" stroke="none">
<path d="M1315 6181 c-256 -61 -446 -255 -499 -511 -20 -100 -19 -4255 1
-4350 44 -199 187 -375 376 -460 138 -62 -8 -58 2325 -56 1170 1 2140 5 2155
9 266 69 452 253 509 508 22 98 23 4246 1 4353 -43 206 -181 378 -376 466
-136 61 3 57 -2308 57 -1935 0 -2120 -1 -2184 -16z m1384 -824 c0 -381 1 -740
1 -799 l0 -108 800 0 800 0 0 799 0 800 38 3 c20 2 54 1 75 -1 l37 -3 0 -796
c0 -478 3 -798 9 -801 5 -3 365 -6 800 -5 548 0 791 -3 791 -10 3 -111 0
-1728 -3 -1733 -3 -5 -397 -8 -876 -7 l-870 0 -3 -70 -3 -71 -800 0 -800 0 0
70 0 70 -868 1 c-478 1 -870 4 -873 7 -4 4 -7 1424 -4 1717 l0 25 798 0 797 0
3 799 c1 455 6 802 11 805 5 4 39 4 75 3 l65 -4 0 -691z m-78 -2806 l77 -1 0
-800 0 -800 -237 -1 c-698 -1 -1068 3 -1115 12 -179 38 -341 198 -385 382 -8
33 -12 221 -12 605 0 306 0 567 1 579 l0 23 513 2 c281 2 640 2 797 1 157 -1
319 -2 361 -2z m3430 -188 c3 -1003 2 -1020 -59 -1143 -35 -71 -141 -177 -213
-213 -115 -57 -108 -57 -820 -57 l-655 0 1 798 c1 438 3 798 3 800 1 1 394 2
872 2 l870 0 1 -187z"/>
<path d="M2763 4302 c-61 -3 -63 -4 -64 -30 -4 -137 -1 -1564 4 -1568 8 -8
1586 -8 1594 0 4 3 7 362 7 797 1 624 -2 793 -11 796 -14 6 -1429 10 -1530 5z"/>
</g>
</svg>
